<svg xmlns="http://www.w3.org/2000/svg" viewBox="0 0 512 512" xml:space="preserve"><path d="M256.6 471.4h-1c-5.3 0-6.8 0-36-22.8-17-13.3-38-30.2-59-47.6-32.6-27-91.4-77-118.8-107.4C-14.4 231-14 141 43 84.2a148 148 0 0 1 105.3-43.6 148 148 0 0 1 105.4 43.6l2.2 2.2 2.2-2.2C316.3 26 411 26 469 84.2c57 57 57.5 147 1.3 209.4a822 822 0 0 1-63.9 60.6 14.1 14.1 0 1 1-18.6-21.2 809.5 809.5 0 0 0 61.6-58.3c46-51.1 45.8-124.4-.3-170.6a121 121 0 0 0-170.8 0L266 116.3a14.1 14.1 0 0 1-20 0l-12.2-12.2c-22.7-22.7-53-35.3-85.4-35.3S85.8 81.4 63 104.1c-46.1 46.2-46.2 119.5-.3 170.6 40.9 45.4 164 144.6 193.1 166 8-5.7 23.6-17.7 47.8-37.1a14.1 14.1 0 1 1 17.7 22c-53.2 42.7-59.4 45.8-64.7 45.8z" fill="#b3404a"/><path d="M256 388.9c-39.2-32.2-117.8-98.6-146.7-130.7A87 87 0 0 1 86 199.9a76 76 0 0 1 22.5-53.7 78.2 78.2 0 0 1 55.7-23c21 0 40.8 8.1 55.6 23l36.1 36 36-36a78.2 78.2 0 0 1 55.7-23c21.1 0 40.9 8.1 55.7 23a76.1 76.1 0 0 1 22.5 53.7 87 87 0 0 1-23.1 58.3c-29 32.2-108.8 99.4-146.8 130.7z" fill="#f4b2b0"/><path d="M256 403a14 14 0 0 1-9-3.2c-18.8-15.5-114.3-94.5-148.2-132.2A101 101 0 0 1 72 200a92.2 92.2 0 0 1 92.3-90.8c24.8 0 48.1 9.6 65.6 27l26.1 26.2 26.1-26.1a92.2 92.2 0 0 1 65.6-27.2A92.2 92.2 0 0 1 440 200a101 101 0 0 1-26.8 67.7C378.6 306.1 276.5 390.3 265 399.8a14 14 0 0 1-8.9 3.2zm-91.7-265.8a64.2 64.2 0 0 0-45.7 19 62 62 0 0 0-18.4 43.8 73 73 0 0 0 19.5 48.8c23.8 26.4 86.3 80.4 136.3 121.8 50-41.4 112.5-95.4 136.3-121.8a73 73 0 0 0 19.5-48.8c0-16.5-6.6-32.1-18.4-43.9a64.2 64.2 0 0 0-45.7-18.9 64.2 64.2 0 0 0-45.6 18.9l-36.1 36a14.1 14.1 0 0 1-20 0l-36-36a64.2 64.2 0 0 0-45.7-18.9z" fill="#b3404a"/></svg>