<?xml version="1.0" encoding="UTF-8" standalone="no"?>
<!DOCTYPE svg PUBLIC "-//W3C//DTD SVG 1.1//EN" "http://www.w3.org/Graphics/SVG/1.1/DTD/svg11.dtd">
<svg width="100%" height="100%" viewBox="0 0 16 16" version="1.1" xmlns="http://www.w3.org/2000/svg" xmlns:xlink="http://www.w3.org/1999/xlink" xml:space="preserve" xmlns:serif="http://www.serif.com/" style="fill-rule:evenodd;clip-rule:evenodd;stroke-linejoin:round;stroke-miterlimit:2;">
    <g transform="matrix(0.03125,0,0,0.03125,0.000294317,-0.269157)">
        <path d="M256.611,471.389C256.299,471.389 255.992,471.379 255.677,471.365L255.525,471.365C250.261,471.365 248.846,471.365 219.653,448.616C202.55,435.288 181.574,418.368 160.588,400.969C127.996,373.949 69.221,324.066 41.777,293.568C-14.414,231.11 -13.859,141.096 43.067,84.19C71.159,56.089 108.574,40.613 148.413,40.613C188.251,40.613 225.667,56.09 253.77,84.193L256.002,86.425L258.241,84.184C316.329,26.096 410.851,26.096 468.949,84.178C525.854,141.11 526.408,231.12 470.242,293.555C457.242,308.004 435.735,328.41 406.32,354.214C400.465,359.35 391.555,358.767 386.42,352.912C381.284,347.057 381.867,338.147 387.722,333.012C415.903,308.292 437.188,288.125 449.275,274.693C495.243,223.597 495.127,150.266 449.006,104.122C401.909,57.036 325.278,57.036 278.191,104.125L265.986,116.34C263.342,118.985 259.756,120.473 256.015,120.475L256.011,120.475C252.273,120.475 248.687,118.99 246.041,116.346L233.83,104.139C211.053,81.362 180.718,68.818 148.414,68.818C116.11,68.818 85.779,81.361 63.01,104.135C16.87,150.259 16.756,223.589 62.742,274.706C103.581,320.09 226.746,419.334 255.848,440.69C263.724,435.008 279.412,423.036 303.566,403.58C309.633,398.694 318.51,399.65 323.395,405.715C328.28,411.78 327.325,420.657 321.26,425.544C268.122,468.344 261.909,471.389 256.611,471.389Z" style="fill-rule:nonzero;"/>
    </g>
    <g transform="matrix(0.03125,0,0,0.03125,0.000294317,-0.269157)">
        <path d="M255.996,402.958C252.822,402.958 249.646,401.89 247.044,399.753C228.228,384.297 132.652,305.288 98.769,267.635C81.397,248.325 71.885,224.266 71.985,199.889C72.082,175.883 81.545,153.259 98.628,136.181C116.126,118.679 139.437,109.039 164.268,109.039C189.1,109.039 212.413,118.678 229.915,136.178L256.017,162.275L282.111,136.16C299.603,118.668 322.91,109.037 347.742,109.037C372.574,109.037 395.888,118.673 413.39,136.17C430.467,153.256 439.925,175.884 440.023,199.89C440.123,224.265 430.613,248.321 413.245,267.627C378.631,306.095 276.483,390.282 264.948,399.754C262.345,401.889 259.17,402.958 255.996,402.958ZM164.266,137.242C146.972,137.242 130.742,143.947 118.569,156.124C106.783,167.906 100.256,183.489 100.189,200.003C100.118,217.361 107.059,234.679 119.736,248.77C143.519,275.198 206.001,329.225 255.996,370.58C305.994,329.229 368.483,275.202 392.276,248.762C404.948,234.677 411.887,217.36 411.817,200.005C411.749,183.485 405.224,167.897 393.444,156.11C381.274,143.943 365.04,137.239 347.74,137.239C330.441,137.239 314.219,143.936 302.056,156.097L265.996,192.188C263.352,194.834 259.764,196.321 256.025,196.323L256.021,196.323C252.281,196.323 248.695,194.838 246.051,192.194L209.972,156.123C197.796,143.948 181.565,137.242 164.266,137.242Z" style="fill-rule:nonzero;"/>
    </g>
</svg>
